<?xml version="1.0" standalone="no"?><!DOCTYPE svg PUBLIC "-//W3C//DTD SVG 1.1//EN" "http://www.w3.org/Graphics/SVG/1.1/DTD/svg11.dtd"><svg t="1741749051282" class="icon" viewBox="0 0 1024 1024" version="1.1" xmlns="http://www.w3.org/2000/svg" p-id="5085" xmlns:xlink="http://www.w3.org/1999/xlink" width="200" height="200"><path d="M439.202133 455.1424l53.5296 89.659733-29.312 17.493334-53.5296-89.659734zM595.797333 455.168l29.2864 17.493333-53.546666 89.659734-29.294934-17.493334zM451.3024 390.545067h132.394667v34.133333H451.3024z" fill="#13227a" p-id="5086"></path><path d="M158.933333 713.617067c4.266667 6.818133 14.097067 20.164267 49.979734 56.874666 35.541333 36.343467 148.5568 127.112533 153.352533 130.9184 0.290133 0.2048 0.554667 0.4352 0.8448 0.64l73.9584 53.649067c22.357333 17.467733 78.830933 51.8656 78.830933 51.8656s56.2944-34.397867 78.685867-51.8656l73.949867-53.649067c0.2816-0.2048 0.5376-0.4352 0.836266-0.64 4.804267-3.797333 117.819733-94.574933 153.335467-130.9184 35.899733-36.7104 45.713067-50.056533 50.0224-56.874666l45.934933-555.7504a21.998933 21.998933 0 0 0-7.04-15.709867 21.956267 21.956267 0 0 0-16.213333-5.777067S535.534933 30.139733 528.290133 25.147733a21.828267 21.828267 0 0 0-24.917333 0c-7.2448 4.983467-367.121067 111.232-367.121067 111.232a21.922133 21.922133 0 0 0-23.2448 21.486934l45.9264 555.7504z m-2.440533-532.676267s315.758933-84.181333 359.3216-111.658667c43.5712 27.485867 359.3472 111.658667 359.3472 111.658667L835.566933 690.346667c-2.7648 4.462933-12.2112 16.802133-44.142933 49.536-32.6912 33.4336-141.431467 120.951467-149.0432 127.044266l-73.838933 53.572267c-0.2048 0.145067-0.4608 0.315733-0.682667 0.494933-14.7712 11.630933-51.950933 34.56-51.950933 34.56s-37.333333-22.929067-52.113067-34.56a8.576 8.576 0 0 0-0.682667-0.494933l-73.838933-53.572267c-7.594667-6.058667-116.343467-93.610667-149.026133-127.044266-31.957333-32.733867-41.386667-45.064533-44.168534-49.536l-39.586133-509.405867z" fill="#13227a" p-id="5087"></path><path d="M515.908267 886.647467s43.946667-32.247467 61.3888-45.8752l54.391466-39.3984c0.2816-0.2048 0.571733-0.4352 0.861867-0.64 3.515733-2.875733 87.057067-69.896533 113.450667-96.9472 26.845867-27.451733 34.312533-37.6064 37.6064-42.845867l35.0208-382.045867a51.601067 51.601067 0 0 0-50.449067-51.447466s-235.2896-78.225067-239.8976-81.416534c-0.034133-0.034133-0.0512-0.034133-0.068267-0.034133a18.466133 18.466133 0 0 0-2.6112-1.501867c-0.1792-0.110933-0.3584-0.1792-0.512-0.290133a23.1424 23.1424 0 0 0-5.674666-1.723733c-0.2304-0.068267-0.452267-0.068267-0.6656-0.145067a25.557333 25.557333 0 0 0-2.944-0.213333c-0.989867 0-1.954133 0.110933-2.926934 0.213333-0.213333 0.068267-0.443733 0.068267-0.657066 0.145067a22.920533 22.920533 0 0 0-5.674667 1.723733c-0.1792 0.1024-0.341333 0.1792-0.503467 0.290133a18.090667 18.090667 0 0 0-2.619733 1.501867c-0.008533 0-0.0512 0-0.068267 0.034133-4.616533 3.191467-239.8976 81.416533-239.8976 81.416534a51.5584 51.5584 0 0 0-50.440533 51.447466l35.029333 382.045867c3.2768 5.239467 10.743467 15.402667 37.5808 42.845867 26.410667 27.050667 109.917867 94.071467 113.467734 96.9472 0.273067 0.2048 0.554667 0.4352 0.8448 0.64l54.4 39.3984c17.425067 13.5936 61.405867 45.8752 61.405866 45.8752h0.068267m-34.747733-80.5376c-0.2304-0.2048-0.452267-0.349867-0.682667-0.546134l-54.289067-39.3472c-6.417067-5.162667-85.444267-68.7872-109.124266-93.0048-24.0384-24.610133-30.2336-32.9984-31.7696-35.498666l-28.398934-358.485334a7.9872 7.9872 0 0 1 7.790934-8.004266l251.2384-79.931734 251.2384 79.931734a8.004267 8.004267 0 0 1 7.790933 8.004266l-28.416 358.485334c-1.5104 2.500267-7.7568 10.888533-31.7696 35.498666-23.671467 24.226133-102.715733 87.842133-109.1072 93.0048l-54.3232 39.3472c-0.213333 0.196267-0.426667 0.341333-0.64 0.546134l-34.773333 24.029866-34.7648-24.029866z" fill="#13227a" p-id="5088"></path><path d="M515.831467 49.800533v116.625067M498.7648 49.800533h34.133333v116.625067h-34.133333z" fill="#13227a" p-id="5089"></path><path d="M515.831467 863.317333v116.625067M498.7648 863.317333h34.133333v116.625067h-34.133333z" fill="#13227a" p-id="5090"></path><path d="M140.8 166.4256L247.466667 265.966933M152.439467 153.941333l106.666666 99.5584-23.296 24.96-106.666666-99.549866z" fill="#13227a" p-id="5091"></path><path d="M879.6672 154.350933l24.132267 24.132267-99.5584 99.549867-24.132267-24.132267z" fill="#13227a" p-id="5092"></path><path d="M555.648 649.693867c21.9648-21.973333 21.9648-57.710933 0.017067-79.658667a56.3712 56.3712 0 0 0-79.6416 0.0256c-21.947733 21.956267-21.9648 57.6768 0 79.633067a56.379733 56.379733 0 0 0 79.624533 0z" fill="#13227a" p-id="5093"></path><path d="M522.299733 688.384A78.3872 78.3872 0 0 0 571.562667 665.6c30.754133-30.754133 30.737067-80.750933 0-111.470933-30.737067-30.737067-80.725333-30.754133-111.479467 0-30.754133 30.737067-30.72 80.750933 0 111.470933a78.592 78.592 0 0 0 62.216533 22.784z m-46.276266-118.3232c21.9648-21.956267 57.6768-21.973333 79.633066-0.0256 21.930667 21.930667 21.947733 57.685333 0 79.658667a56.3968 56.3968 0 0 1-79.6416 0 56.362667 56.362667 0 0 1 0.008534-79.633067z" fill="#13227a" p-id="5094"></path><path d="M690.747733 447.445333c21.9648-21.973333 21.9648-57.710933 0.017067-79.658666a56.379733 56.379733 0 0 0-79.650133 0.0256c-21.947733 21.956267-21.9648 57.6768 0 79.633066a56.388267 56.388267 0 0 0 79.633066 0z" fill="#13227a" p-id="5095"></path><path d="M657.399467 486.135467a78.3872 78.3872 0 0 0 49.262933-22.784c30.754133-30.754133 30.737067-80.750933 0-111.470934-30.737067-30.737067-80.733867-30.754133-111.479467 0-30.754133 30.737067-30.72 80.750933 0 111.470934a78.592 78.592 0 0 0 62.216534 22.784z m-46.2848-118.3232c21.9648-21.956267 57.685333-21.973333 79.633066-0.0256 21.930667 21.930667 21.947733 57.685333 0 79.658666a56.405333 56.405333 0 0 1-79.650133 0 56.388267 56.388267 0 0 1 0.017067-79.633066z" fill="#13227a" p-id="5096"></path><path d="M424.081067 447.445333c21.9648-21.973333 21.9648-57.710933 0.017066-79.658666a56.379733 56.379733 0 0 0-79.650133 0.0256c-21.947733 21.956267-21.9648 57.6768 0 79.633066a56.388267 56.388267 0 0 0 79.633067 0z" fill="#13227a" p-id="5097"></path><path d="M390.7328 486.135467a78.3872 78.3872 0 0 0 49.262933-22.784c30.754133-30.754133 30.737067-80.750933 0-111.470934-30.737067-30.737067-80.733867-30.754133-111.479466 0-30.754133 30.737067-30.72 80.750933 0 111.470934a78.592 78.592 0 0 0 62.216533 22.784z m-46.2848-118.3232c21.9648-21.956267 57.685333-21.973333 79.633067-0.0256 21.930667 21.930667 21.947733 57.685333 0 79.658666a56.405333 56.405333 0 0 1-79.650134 0 56.388267 56.388267 0 0 1 0.017067-79.633066z" fill="#13227a" p-id="5098"></path></svg>